<svg width="162" height="39" viewBox="0 0 162 39" fill="none" xmlns="http://www.w3.org/2000/svg">
<path d="M15.1858 20.84C15.1858 21.912 14.9378 22.888 14.4418 23.768C13.9458 24.632 13.2098 25.32 12.2338 25.832C11.2738 26.344 10.1058 26.6 8.72984 26.6H6.61784V32H1.28984V15.008H8.72984C10.8098 15.008 12.4018 15.536 13.5058 16.592C14.6258 17.648 15.1858 19.064 15.1858 20.84ZM8.12984 22.4C9.23384 22.4 9.78584 21.88 9.78584 20.84C9.78584 19.8 9.23384 19.28 8.12984 19.28H6.61784V22.4H8.12984ZM23.3078 32.168C21.9478 32.168 20.7238 31.888 19.6358 31.328C18.5478 30.768 17.6918 29.968 17.0678 28.928C16.4598 27.872 16.1558 26.64 16.1558 25.232C16.1558 23.824 16.4598 22.6 17.0678 21.56C17.6918 20.504 18.5478 19.696 19.6358 19.136C20.7238 18.576 21.9478 18.296 23.3078 18.296C24.6678 18.296 25.8918 18.576 26.9798 19.136C28.0678 19.696 28.9158 20.504 29.5238 21.56C30.1478 22.6 30.4598 23.824 30.4598 25.232C30.4598 26.64 30.1478 27.872 29.5238 28.928C28.9158 29.968 28.0678 30.768 26.9798 31.328C25.8918 31.888 24.6678 32.168 23.3078 32.168ZM23.3078 27.56C23.8038 27.56 24.2198 27.368 24.5558 26.984C24.8918 26.584 25.0598 26 25.0598 25.232C25.0598 24.464 24.8918 23.888 24.5558 23.504C24.2198 23.104 23.8038 22.904 23.3078 22.904C22.8118 22.904 22.3958 23.104 22.0598 23.504C21.7238 23.888 21.5558 24.464 21.5558 25.232C21.5558 26 21.7158 26.584 22.0358 26.984C22.3718 27.368 22.7958 27.56 23.3078 27.56ZM37.4616 20.312C37.7976 19.688 38.2776 19.2 38.9016 18.848C39.5416 18.48 40.3016 18.296 41.1816 18.296C42.2376 18.296 43.1896 18.576 44.0376 19.136C44.8856 19.68 45.5496 20.48 46.0296 21.536C46.5256 22.576 46.7736 23.808 46.7736 25.232C46.7736 26.656 46.5256 27.896 46.0296 28.952C45.5496 29.992 44.8856 30.792 44.0376 31.352C43.1896 31.896 42.2376 32.168 41.1816 32.168C40.3016 32.168 39.5416 31.992 38.9016 31.64C38.2776 31.272 37.7976 30.776 37.4616 30.152V38.48H32.1336V18.464H37.4616V20.312ZM41.3736 25.232C41.3736 24.512 41.1896 23.952 40.8216 23.552C40.4536 23.152 39.9816 22.952 39.4056 22.952C38.8296 22.952 38.3576 23.152 37.9896 23.552C37.6216 23.952 37.4376 24.512 37.4376 25.232C37.4376 25.952 37.6216 26.512 37.9896 26.912C38.3576 27.312 38.8296 27.512 39.4056 27.512C39.9816 27.512 40.4536 27.312 40.8216 26.912C41.1896 26.512 41.3736 25.952 41.3736 25.232ZM47.9661 23.48C47.9661 21.8 48.3021 20.304 48.9741 18.992C49.6621 17.68 50.6381 16.664 51.9021 15.944C53.1661 15.208 54.6541 14.84 56.3661 14.84C57.8381 14.84 59.1501 15.12 60.3021 15.68C61.4701 16.224 62.4141 17 63.1341 18.008C63.8701 19.016 64.3581 20.192 64.5981 21.536H58.9821C58.7261 20.976 58.3581 20.544 57.8781 20.24C57.4141 19.92 56.8781 19.76 56.2701 19.76C55.3741 19.76 54.6621 20.096 54.1341 20.768C53.6221 21.44 53.3661 22.344 53.3661 23.48C53.3661 24.616 53.6221 25.52 54.1341 26.192C54.6621 26.864 55.3741 27.2 56.2701 27.2C56.8781 27.2 57.4141 27.048 57.8781 26.744C58.3581 26.424 58.7261 25.984 58.9821 25.424H64.5981C64.3581 26.768 63.8701 27.944 63.1341 28.952C62.4141 29.96 61.4701 30.744 60.3021 31.304C59.1501 31.848 57.8381 32.12 56.3661 32.12C54.6541 32.12 53.1661 31.76 51.9021 31.04C50.6381 30.304 49.6621 29.28 48.9741 27.968C48.3021 26.656 47.9661 25.16 47.9661 23.48ZM72.9484 32.168C71.5884 32.168 70.3644 31.888 69.2764 31.328C68.1884 30.768 67.3324 29.968 66.7084 28.928C66.1004 27.872 65.7964 26.64 65.7964 25.232C65.7964 23.824 66.1004 22.6 66.7084 21.56C67.3324 20.504 68.1884 19.696 69.2764 19.136C70.3644 18.576 71.5884 18.296 72.9484 18.296C74.3084 18.296 75.5324 18.576 76.6204 19.136C77.7084 19.696 78.5564 20.504 79.1644 21.56C79.7884 22.6 80.1004 23.824 80.1004 25.232C80.1004 26.64 79.7884 27.872 79.1644 28.928C78.5564 29.968 77.7084 30.768 76.6204 31.328C75.5324 31.888 74.3084 32.168 72.9484 32.168ZM72.9484 27.56C73.4444 27.56 73.8604 27.368 74.1964 26.984C74.5324 26.584 74.7004 26 74.7004 25.232C74.7004 24.464 74.5324 23.888 74.1964 23.504C73.8604 23.104 73.4444 22.904 72.9484 22.904C72.4524 22.904 72.0364 23.104 71.7004 23.504C71.3644 23.888 71.1964 24.464 71.1964 25.232C71.1964 26 71.3564 26.584 71.6764 26.984C72.0124 27.368 72.4364 27.56 72.9484 27.56ZM87.1022 14.24V32H81.7742V14.24H87.1022ZM94.8366 14.24V32H89.5086V14.24H94.8366ZM110.347 25.112C110.347 25.48 110.323 25.832 110.275 26.168H101.707C101.787 27.336 102.275 27.92 103.171 27.92C103.747 27.92 104.163 27.656 104.419 27.128H110.059C109.867 28.088 109.459 28.952 108.835 29.72C108.227 30.472 107.451 31.072 106.507 31.52C105.579 31.952 104.555 32.168 103.435 32.168C102.091 32.168 100.891 31.888 99.835 31.328C98.795 30.768 97.979 29.968 97.387 28.928C96.811 27.872 96.523 26.64 96.523 25.232C96.523 23.824 96.811 22.6 97.387 21.56C97.979 20.504 98.795 19.696 99.835 19.136C100.891 18.576 102.091 18.296 103.435 18.296C104.779 18.296 105.971 18.576 107.011 19.136C108.067 19.68 108.883 20.464 109.459 21.488C110.051 22.512 110.347 23.72 110.347 25.112ZM104.947 23.84C104.947 23.392 104.803 23.056 104.515 22.832C104.227 22.592 103.867 22.472 103.435 22.472C102.491 22.472 101.939 22.928 101.779 23.84H104.947ZM111.312 25.232C111.312 23.824 111.6 22.6 112.176 21.56C112.768 20.504 113.584 19.696 114.624 19.136C115.68 18.576 116.88 18.296 118.224 18.296C119.984 18.296 121.464 18.792 122.664 19.784C123.88 20.776 124.648 22.152 124.968 23.912H119.328C119.12 23.208 118.712 22.856 118.104 22.856C117.672 22.856 117.328 23.056 117.072 23.456C116.832 23.856 116.712 24.448 116.712 25.232C116.712 26.016 116.832 26.608 117.072 27.008C117.328 27.408 117.672 27.608 118.104 27.608C118.712 27.608 119.12 27.256 119.328 26.552H124.968C124.648 28.312 123.88 29.688 122.664 30.68C121.464 31.672 119.984 32.168 118.224 32.168C116.88 32.168 115.68 31.888 114.624 31.328C113.584 30.768 112.768 29.968 112.176 28.928C111.6 27.872 111.312 26.64 111.312 25.232ZM135.081 27.464V32H133.065C129.353 32 127.497 30.152 127.497 26.456V22.904H125.817V18.464H127.497V15.2H132.825V18.464H135.033V22.904H132.825V26.552C132.825 26.872 132.897 27.104 133.041 27.248C133.201 27.392 133.457 27.464 133.809 27.464H135.081Z" fill="black"/>
<path d="M159.97 9.47001C159.969 9.69351 159.898 9.91111 159.767 10.0923C159.636 10.2734 159.452 10.409 159.24 10.48L157.36 11.1C156.77 11.2974 156.234 11.6298 155.795 12.0707C155.355 12.5116 155.025 13.049 154.83 13.64L154.18 15.51C154.105 15.7187 153.969 15.8999 153.79 16.03C153.654 16.1279 153.497 16.1922 153.331 16.2176C153.166 16.243 152.996 16.2288 152.837 16.1761C152.678 16.1234 152.534 16.0337 152.416 15.9145C152.298 15.7952 152.211 15.6498 152.16 15.49L151.53 13.61C151.327 13.0172 150.984 12.4821 150.53 12.05C150.091 11.5996 149.554 11.2573 148.96 11.05L147.08 10.42C146.867 10.353 146.681 10.2199 146.549 10.04C146.419 9.85737 146.35 9.63896 146.35 9.41501C146.35 9.19106 146.419 8.97265 146.549 8.79001C146.682 8.60485 146.871 8.46796 147.089 8.40001L148.959 7.77001C149.561 7.56761 150.106 7.22482 150.549 6.77001C150.999 6.32701 151.342 5.78601 151.549 5.19001L152.169 3.34001C152.228 3.12864 152.354 2.94241 152.529 2.81001C152.705 2.66885 152.923 2.59132 153.149 2.59001C153.372 2.58462 153.592 2.64741 153.779 2.77001C153.969 2.88922 154.113 3.06884 154.189 3.28001L154.819 5.19001C155.026 5.78601 155.369 6.32701 155.819 6.77001C156.259 7.22349 156.801 7.56619 157.399 7.77001L159.269 8.43001C159.48 8.49587 159.662 8.62947 159.789 8.81001C159.919 9.00401 159.984 9.23501 159.97 9.47001ZM150.1 16.4C150.1 16.6039 150.037 16.8028 149.92 16.97C149.799 17.1326 149.632 17.2547 149.44 17.32L148.09 17.77C147.712 17.9034 147.37 18.1224 147.09 18.41C146.805 18.6917 146.587 19.0333 146.45 19.41L145.98 20.75C145.915 20.9418 145.793 21.1092 145.63 21.23C145.462 21.3484 145.261 21.4119 145.055 21.4119C144.849 21.4119 144.648 21.3484 144.48 21.23C144.317 21.1092 144.195 20.9418 144.13 20.75L143.69 19.41C143.553 19.0332 143.334 18.6916 143.049 18.41C142.767 18.1251 142.426 17.9065 142.049 17.77L140.699 17.33C140.506 17.262 140.338 17.1363 140.219 16.97C140.099 16.804 140.032 16.605 140.029 16.4C140.033 16.1938 140.1 15.9937 140.222 15.8272C140.343 15.6608 140.514 15.536 140.709 15.47L142.049 15.03C142.424 14.8908 142.765 14.6723 143.048 14.3892C143.331 14.1062 143.55 13.7653 143.689 13.39L144.139 12.07C144.199 11.8808 144.314 11.7137 144.469 11.59C144.631 11.4664 144.827 11.3954 145.031 11.3864C145.235 11.3775 145.437 11.4311 145.609 11.54C145.78 11.658 145.912 11.825 145.989 12.02L146.439 13.39C146.578 13.7653 146.797 14.1062 147.08 14.3892C147.363 14.6723 147.704 14.8908 148.079 15.03L149.419 15.5C149.61 15.561 149.776 15.6842 149.889 15.85C150.016 16.0061 150.09 16.1989 150.099 16.4" fill="#F8BD00"/>
</svg>
