<svg width="45" height="45" viewBox="0 0 45 45" fill="none" xmlns="http://www.w3.org/2000/svg">
<path d="M34.5674 39.2568H10.4287C9.18551 39.2568 7.99322 38.763 7.11415 37.8839C6.23507 37.0048 5.74121 35.8125 5.74121 34.5693V10.4306C5.74121 9.1874 6.23507 7.99512 7.11415 7.11604C7.99322 6.23696 9.18551 5.7431 10.4287 5.7431H34.5674C35.8107 5.7431 37.0029 6.23696 37.882 7.11604C38.7611 7.99512 39.2549 9.1874 39.2549 10.4306V34.5693C39.2549 35.8125 38.7611 37.0048 37.882 37.8839C37.0029 38.763 35.8107 39.2568 34.5674 39.2568ZM10.4287 7.6181C9.68279 7.6181 8.96742 7.91442 8.43997 8.44186C7.91253 8.96931 7.61621 9.68468 7.61621 10.4306V34.5693C7.61621 35.3153 7.91253 36.0306 8.43997 36.5581C8.96742 37.0855 9.68279 37.3818 10.4287 37.3818H34.5674C35.3134 37.3818 36.0287 37.0855 36.5562 36.5581C37.0836 36.0306 37.3799 35.3153 37.3799 34.5693V10.4306C37.3799 9.68468 37.0836 8.96931 36.5562 8.44186C36.0287 7.91442 35.3134 7.6181 34.5674 7.6181H10.4287Z" fill="#1E1E1E"/>
<path d="M12.2699 15.5306C12.0223 15.5261 11.7857 15.4276 11.6081 15.255C11.4323 15.0792 11.3336 14.8408 11.3336 14.5922C11.3336 14.3436 11.4323 14.1052 11.6081 13.9294C11.7838 13.7541 12.0218 13.6557 12.2699 13.6556H14.1562C14.4036 13.6596 14.6402 13.7574 14.8181 13.9294C14.9054 14.0164 14.9747 14.1199 15.022 14.2338C15.0693 14.3477 15.0937 14.4698 15.0937 14.5931C15.0937 14.8417 14.9949 15.0802 14.8191 15.256C14.6433 15.4318 14.4048 15.5306 14.1562 15.5306H12.2699ZM12.2699 23.4375C12.0226 23.4335 11.786 23.3356 11.6081 23.1637C11.5208 23.0766 11.4515 22.9732 11.4042 22.8593C11.357 22.7454 11.3326 22.6233 11.3326 22.5C11.3326 22.3767 11.357 22.2546 11.4042 22.1407C11.4515 22.0268 11.5208 21.9233 11.6081 21.8362C11.786 21.6643 12.0226 21.5665 12.2699 21.5625H14.1562C14.4036 21.5665 14.6402 21.6643 14.8181 21.8362C14.9054 21.9233 14.9746 22.0268 15.0219 22.1407C15.0692 22.2546 15.0935 22.3767 15.0935 22.5C15.0935 22.6233 15.0692 22.7454 15.0219 22.8593C14.9746 22.9732 14.9054 23.0766 14.8181 23.1637C14.6402 23.3356 14.4036 23.4335 14.1562 23.4375H12.2699ZM12.2699 31.35C12.0223 31.3455 11.7857 31.247 11.6081 31.0744C11.4323 30.8985 11.3336 30.6601 11.3336 30.4115C11.3336 30.1629 11.4323 29.9245 11.6081 29.7487C11.786 29.5768 12.0226 29.479 12.2699 29.475H14.1562C14.4036 29.479 14.6402 29.5768 14.8181 29.7487C14.9054 29.8358 14.9747 29.9392 15.022 30.0531C15.0693 30.167 15.0937 30.2891 15.0937 30.4125C15.0937 30.6611 14.9949 30.8996 14.8191 31.0754C14.6433 31.2512 14.4048 31.35 14.1562 31.35H12.2699ZM19.7887 15.5269C19.5401 15.5269 19.3016 15.4281 19.1258 15.2523C18.95 15.0765 18.8512 14.838 18.8512 14.5894C18.8512 14.3407 18.95 14.1023 19.1258 13.9264C19.3016 13.7506 19.5401 13.6519 19.7887 13.6519H32.7262C32.9748 13.6519 33.2133 13.7506 33.3891 13.9264C33.5649 14.1023 33.6637 14.3407 33.6637 14.5894C33.6637 14.838 33.5649 15.0765 33.3891 15.2523C33.2133 15.4281 32.9748 15.5269 32.7262 15.5269H19.7887ZM19.7887 23.4375C19.5401 23.4375 19.3016 23.3387 19.1258 23.1629C18.95 22.9871 18.8512 22.7486 18.8512 22.5C18.8512 22.2513 18.95 22.0129 19.1258 21.8371C19.3016 21.6613 19.5401 21.5625 19.7887 21.5625H32.7262C32.9748 21.5625 33.2133 21.6613 33.3891 21.8371C33.5649 22.0129 33.6637 22.2513 33.6637 22.5C33.6637 22.7486 33.5649 22.9871 33.3891 23.1629C33.2133 23.3387 32.9748 23.4375 32.7262 23.4375H19.7887ZM19.7887 31.3462C19.5401 31.3462 19.3016 31.2475 19.1258 31.0716C18.95 30.8958 18.8512 30.6574 18.8512 30.4087C18.8512 30.1601 18.95 29.9216 19.1258 29.7458C19.3016 29.57 19.5401 29.4712 19.7887 29.4712H32.7262C32.9748 29.4712 33.2133 29.57 33.3891 29.7458C33.5649 29.9216 33.6637 30.1601 33.6637 30.4087C33.6637 30.6574 33.5649 30.8958 33.3891 31.0716C33.2133 31.2475 32.9748 31.3462 32.7262 31.3462H19.7887Z" fill="#1E1E1E"/>
</svg>
